# xmcd
#
# Track frame offsets: 
#        150
#        15885
#        33931
#        49616
#        66808
#        82440
#        98601
#        118550
#        143218
#        159030
#        178882
#        195384
#        209666
#
# Disc length: 3147 seconds
#
# Revision: 0
# Processed by: cddbd v1.5.2PL0 Copyright (c) Steve Scherf et al.
# Submitted via: ExactAudioCopy v0.99pb3
#
DISCID=a70c490d
DTITLE=Super Chikan - Chikedelic
DYEAR=2010
DGENRE=Blues
TTITLE0=Ain't Nobody
TTITLE1=Hey Super Chikan
TTITLE2=Fred's Dollar Store
TTITLE3=Juke Joint Saturday Night
TTITLE4=Front Porch Boogie
TTITLE5=Hello Mississippi
TTITLE6=Bad Ass Bass
TTITLE7=Here Comes My Baby
TTITLE8=School In The Field
TTITLE9=Down In The Delta
TTITLE10=Dance Rock And Sway
TTITLE11=Eyeball Blues
TTITLE12=Shoot That Thing
EXTD=
EXTT0=
EXTT1=
EXTT2=
EXTT3=
EXTT4=
EXTT5=
EXTT6=
EXTT7=
EXTT8=
EXTT9=
EXTT10=
EXTT11=
EXTT12=
PLAYORDER=
